<?xml version="1.0" encoding="UTF-8" standalone="no"?>
<svg width="37px" height="51px" viewBox="0 0 37 51" version="1.1" xmlns="http://www.w3.org/2000/svg" xmlns:xlink="http://www.w3.org/1999/xlink" xmlns:sketch="http://www.bohemiancoding.com/sketch/ns">
    <!-- Generator: Sketch 3.3.2 (12043) - http://www.bohemiancoding.com/sketch -->
    <title>interactive</title>
    <desc>Created with Sketch.</desc>
    <defs></defs>
    <g id="iPad-3" stroke="none" stroke-width="1" fill="none" fill-rule="evenodd" sketch:type="MSPage">
        <g id="-" sketch:type="MSArtboardGroup" transform="translate(-942.000000, -664.000000)" fill="#FFFFFF" opacity="0.7">
            <g id="buttons-tap" sketch:type="MSLayerGroup" transform="translate(838.000000, 647.000000)">
                <g id="Interactive" transform="translate(82.890244, 0.669173)" sketch:type="MSShapeGroup">
                    <path d="M54.0084821,33 C53.1784821,33 52.4084821,33.253 51.7694821,33.686 C51.2234821,32.126 49.7544821,31 48.0084821,31 C47.1784821,31 46.4084821,31.253 45.7694821,31.686 C45.2234821,30.126 43.7544821,29 42.0084821,29 C41.2764821,29 40.5984821,29.212 40.0084821,29.555 L40.0084821,21 C40.0084821,18.791 38.2174821,17 36.0084821,17 C33.7994821,17 32.0084821,18.791 32.0084821,21 L32.0084821,43.913 L29.6964821,39.456 C28.6634821,37.384 26.5104821,36.446 24.4694821,37.291 C22.4284821,38.137 21.4604821,40.477 22.3054821,42.518 L26.6094821,55.297 C28.4884821,62.044 34.6624821,67 42.0084821,67 C50.8444821,67 58.0084821,59.837 58.0084821,51 L58.0084821,37 C58.0084821,34.791 56.2174821,33 54.0084821,33 L54.0084821,33 Z M56.0084821,51 C56.0084821,58.732 49.7404821,65 42.0084821,65 C36.0924821,65 31.0444821,61.325 28.9944821,56.138 L28.9754821,56.14 L28.9744821,56.137 L28.9944821,56.128 L24.1534821,41.752 C23.7304821,40.731 24.2154821,39.561 25.2354821,39.139 C26.2564821,38.716 27.2684821,39.115 27.8484821,40.222 L32.0964821,48.41 L32.0994821,48.408 C32.2564821,48.756 32.6024821,49 33.0084821,49 C33.5604821,49 34.0084821,48.553 34.0084821,48 L34.0084821,21 C34.0084821,19.896 34.9044821,19 36.0084821,19 C37.1124821,19 38.0084821,19.896 38.0084821,21 L38.0084821,38 C38.0084821,38.553 38.4564821,39 39.0084821,39 C39.5604821,39 40.0084821,38.553 40.0084821,38 L40.0084821,33 C40.0084821,31.896 40.9044821,31 42.0084821,31 C43.1134821,31 44.0084821,31.896 44.0084821,33 L44.0084821,40 C44.0084821,40.553 44.4564821,41 45.0084821,41 C45.5604821,41 46.0084821,40.553 46.0084821,40 L46.0084821,35 C46.0084821,33.895 46.9044821,33 48.0084821,33 C49.1134821,33 50.0084821,33.895 50.0084821,35 L50.0084821,42 C50.0084821,42.553 50.4564821,43 51.0084821,43 C51.5604821,43 52.0084821,42.553 52.0084821,42 L52.0084821,37 C52.0084821,35.895 52.9044821,35 54.0084821,35 C55.1124821,35 56.0084821,35.895 56.0084821,37 L56.0084821,51 L56.0084821,51 Z" id="interactive"></path>
                </g>
            </g>
        </g>
    </g>
</svg>