<?xml version="1.0" encoding="UTF-8" standalone="no"?>
<svg width="27px" height="36px" viewBox="0 0 27 36" version="1.1" xmlns="http://www.w3.org/2000/svg" xmlns:xlink="http://www.w3.org/1999/xlink" xmlns:sketch="http://www.bohemiancoding.com/sketch/ns">
    <!-- Generator: Sketch 3.3.2 (12043) - http://www.bohemiancoding.com/sketch -->
    <title>interactive</title>
    <desc>Created with Sketch.</desc>
    <defs></defs>
    <g id="03-bkx_data-New-York-City" stroke="none" stroke-width="1" fill="none" fill-rule="evenodd" sketch:type="MSPage">
        <g id="Map-View" sketch:type="MSArtboardGroup" transform="translate(-114.000000, -1183.000000)" fill="#FFFFFF">
            <g id="map-controls" sketch:type="MSLayerGroup" transform="translate(92.000000, 1165.000000)">
                <g id="animated/interactive" sketch:type="MSShapeGroup">
                    <g id="interactive" transform="translate(8.000000, 9.000000)">
                        <path d="M37.2961813,20.8691729 C36.7151813,20.8691729 36.1761813,21.0462729 35.7288813,21.3493729 C35.3466813,20.2573729 34.3183813,19.4691729 33.0961813,19.4691729 C32.5151813,19.4691729 31.9761813,19.6462729 31.5288813,19.9493729 C31.1466813,18.8573729 30.1183813,18.0691729 28.8961813,18.0691729 C28.3837813,18.0691729 27.9091813,18.2175729 27.4961813,18.4576729 L27.4961813,12.4691729 C27.4961813,10.9228729 26.2424813,9.66917293 24.6961813,9.66917293 C23.1498813,9.66917293 21.8961813,10.9228729 21.8961813,12.4691729 L21.8961813,28.5082729 L20.2777813,25.3883729 C19.5546813,23.9379729 18.0475813,23.2813729 16.6188813,23.8728729 C15.1901813,24.4650729 14.5125813,26.1030729 15.1040813,27.5317729 L18.1168813,36.4770729 C19.4321813,41.1999729 23.7539813,44.6691729 28.8961813,44.6691729 C35.0813813,44.6691729 40.0961813,39.6550729 40.0961813,33.4691729 L40.0961813,23.6691729 C40.0961813,22.1228729 38.8424813,20.8691729 37.2961813,20.8691729 L37.2961813,20.8691729 Z M38.6961813,33.4691729 C38.6961813,38.8815729 34.3085813,43.2691729 28.8961813,43.2691729 C24.7549813,43.2691729 21.2213813,40.6966729 19.7863813,37.0657729 L19.7730813,37.0671729 L19.7723813,37.0650729 L19.7863813,37.0587729 L16.3976813,26.9955729 C16.1015813,26.2808729 16.4410813,25.4618729 17.1550813,25.1664729 C17.8697813,24.8703729 18.5781813,25.1496729 18.9841813,25.9245729 L21.9577813,31.6561729 L21.9598813,31.6547729 C22.0697813,31.8983729 22.3119813,32.0691729 22.5961813,32.0691729 C22.9825813,32.0691729 23.2961813,31.7562729 23.2961813,31.3691729 L23.2961813,12.4691729 C23.2961813,11.6963729 23.9233813,11.0691729 24.6961813,11.0691729 C25.4689813,11.0691729 26.0961813,11.6963729 26.0961813,12.4691729 L26.0961813,24.3691729 C26.0961813,24.7562729 26.4097813,25.0691729 26.7961813,25.0691729 C27.1825813,25.0691729 27.4961813,24.7562729 27.4961813,24.3691729 L27.4961813,20.8691729 C27.4961813,20.0963729 28.1233813,19.4691729 28.8961813,19.4691729 C29.6696813,19.4691729 30.2961813,20.0963729 30.2961813,20.8691729 L30.2961813,25.7691729 C30.2961813,26.1562729 30.6097813,26.4691729 30.9961813,26.4691729 C31.3825813,26.4691729 31.6961813,26.1562729 31.6961813,25.7691729 L31.6961813,22.2691729 C31.6961813,21.4956729 32.3233813,20.8691729 33.0961813,20.8691729 C33.8696813,20.8691729 34.4961813,21.4956729 34.4961813,22.2691729 L34.4961813,27.1691729 C34.4961813,27.5562729 34.8097813,27.8691729 35.1961813,27.8691729 C35.5825813,27.8691729 35.8961813,27.5562729 35.8961813,27.1691729 L35.8961813,23.6691729 C35.8961813,22.8956729 36.5233813,22.2691729 37.2961813,22.2691729 C38.0689813,22.2691729 38.6961813,22.8956729 38.6961813,23.6691729 L38.6961813,33.4691729 L38.6961813,33.4691729 Z"></path>
                    </g>
                </g>
            </g>
        </g>
    </g>
</svg>